# WaveFront *.obj file (generated by Autodesk ATF)

mtllib mantech.mtl

g Body1

v 60.000000 60.000000 0.000000
v 50.000000 60.000000 0.000000
v 40.000000 60.000000 0.000000
v 30.000000 60.000000 0.000000
v 20.000000 60.000000 0.000000
v 10.000000 60.000000 0.000000
v 0.000000 60.000000 0.000000
v 0.000000 60.000000 10.000000
v 10.000000 60.000000 10.000000
v 20.000000 60.000000 10.000000
v 30.000000 60.000000 10.000000
v 40.000000 60.000000 10.000000
v 50.000000 60.000000 10.000000
v 60.000000 60.000000 10.000000
v 60.000000 0.000000 0.000000
v 60.000000 10.000000 0.000000
v 60.000000 20.000000 0.000000
v 60.000000 30.000000 0.000000
v 60.000000 40.000000 0.000000
v 60.000000 50.000000 0.000000
v 60.000000 50.000000 10.000000
v 60.000000 40.000000 10.000000
v 60.000000 30.000000 10.000000
v 60.000000 20.000000 10.000000
v 60.000000 10.000000 10.000000
v 60.000000 0.000000 10.000000
v 0.000000 0.000000 0.000000
v 10.000000 0.000000 0.000000
v 20.000000 0.000000 0.000000
v 30.000000 0.000000 0.000000
v 40.000000 0.000000 0.000000
v 50.000000 0.000000 0.000000
v 50.000000 0.000000 10.000000
v 40.000000 0.000000 10.000000
v 30.000000 0.000000 10.000000
v 20.000000 0.000000 10.000000
v 10.000000 0.000000 10.000000
v 0.000000 0.000000 10.000000
v 0.000000 50.000000 0.000000
v 0.000000 40.000000 0.000000
v 0.000000 30.000000 0.000000
v 0.000000 20.000000 0.000000
v 0.000000 10.000000 0.000000
v 0.000000 10.000000 10.000000
v 0.000000 20.000000 10.000000
v 0.000000 30.000000 10.000000
v 0.000000 40.000000 10.000000
v 0.000000 50.000000 10.000000
v 10.000000 50.000000 10.000000
v 20.000000 50.000000 10.000000
v 30.000000 50.000000 10.000000
v 40.000000 50.000000 10.000000
v 50.000000 50.000000 10.000000
v 10.000000 40.000000 10.000000
v 20.000000 40.000000 10.000000
v 30.000000 40.000000 10.000000
v 40.000000 40.000000 10.000000
v 50.000000 40.000000 10.000000
v 10.000000 30.000000 10.000000
v 20.000000 30.000000 10.000000
v 30.000000 30.000000 10.000000
v 40.000000 30.000000 10.000000
v 50.000000 30.000000 10.000000
v 10.000000 20.000000 10.000000
v 20.000000 20.000000 10.000000
v 30.000000 20.000000 10.000000
v 40.000000 20.000000 10.000000
v 50.000000 20.000000 10.000000
v 10.000000 10.000000 10.000000
v 20.000000 10.000000 10.000000
v 30.000000 10.000000 10.000000
v 40.000000 10.000000 10.000000
v 50.000000 10.000000 10.000000
v 10.000000 10.000000 0.000000
v 20.000000 10.000000 0.000000
v 30.000000 10.000000 0.000000
v 40.000000 10.000000 0.000000
v 50.000000 10.000000 0.000000
v 10.000000 20.000000 0.000000
v 20.000000 20.000000 0.000000
v 30.000000 20.000000 0.000000
v 40.000000 20.000000 0.000000
v 50.000000 20.000000 0.000000
v 10.000000 30.000000 0.000000
v 20.000000 30.000000 0.000000
v 30.000000 30.000000 0.000000
v 40.000000 30.000000 0.000000
v 50.000000 30.000000 0.000000
v 10.000000 40.000000 0.000000
v 20.000000 40.000000 0.000000
v 30.000000 40.000000 0.000000
v 40.000000 40.000000 0.000000
v 50.000000 40.000000 0.000000
v 10.000000 50.000000 0.000000
v 20.000000 50.000000 0.000000
v 30.000000 50.000000 0.000000
v 40.000000 50.000000 0.000000
v 50.000000 50.000000 0.000000
vt 0.000000 0.000000 0.000000
vt 10.000000 0.000000 0.000000
vt 0.000000 10.000000 0.000000
vt 10.000000 10.000000 0.000000
vt 20.000000 0.000000 0.000000
vt 20.000000 10.000000 0.000000
vt 30.000000 0.000000 0.000000
vt 30.000000 10.000000 0.000000
vt 40.000000 0.000000 0.000000
vt 40.000000 10.000000 0.000000
vt 50.000000 0.000000 0.000000
vt 50.000000 10.000000 0.000000
vt 60.000000 0.000000 0.000000
vt 60.000000 10.000000 0.000000
vt 0.000000 0.000000 0.000000
vt 10.000000 0.000000 0.000000
vt 0.000000 10.000000 0.000000
vt 10.000000 10.000000 0.000000
vt 20.000000 0.000000 0.000000
vt 20.000000 10.000000 0.000000
vt 30.000000 0.000000 0.000000
vt 30.000000 10.000000 0.000000
vt 40.000000 0.000000 0.000000
vt 40.000000 10.000000 0.000000
vt 50.000000 0.000000 0.000000
vt 50.000000 10.000000 0.000000
vt 60.000000 0.000000 0.000000
vt 60.000000 10.000000 0.000000
vt 0.000000 0.000000 0.000000
vt 10.000000 0.000000 0.000000
vt 0.000000 10.000000 0.000000
vt 10.000000 10.000000 0.000000
vt 20.000000 0.000000 0.000000
vt 20.000000 10.000000 0.000000
vt 30.000000 0.000000 0.000000
vt 30.000000 10.000000 0.000000
vt 40.000000 0.000000 0.000000
vt 40.000000 10.000000 0.000000
vt 50.000000 0.000000 0.000000
vt 50.000000 10.000000 0.000000
vt 60.000000 0.000000 0.000000
vt 60.000000 10.000000 0.000000
vt 0.000000 0.000000 0.000000
vt 10.000000 0.000000 0.000000
vt 0.000000 10.000000 0.000000
vt 10.000000 10.000000 0.000000
vt 20.000000 0.000000 0.000000
vt 20.000000 10.000000 0.000000
vt 30.000000 0.000000 0.000000
vt 30.000000 10.000000 0.000000
vt 40.000000 0.000000 0.000000
vt 40.000000 10.000000 0.000000
vt 50.000000 0.000000 0.000000
vt 50.000000 10.000000 0.000000
vt 60.000000 0.000000 0.000000
vt 60.000000 10.000000 0.000000
vt -20.000000 30.000000 0.000000
vt -30.000000 30.000000 0.000000
vt -20.000000 20.000000 0.000000
vt -30.000000 20.000000 0.000000
vt -20.000000 10.000000 0.000000
vt -30.000000 10.000000 0.000000
vt -20.000000 0.000000 0.000000
vt -30.000000 0.000000 0.000000
vt -20.000000 -10.000000 0.000000
vt -30.000000 -10.000000 0.000000
vt -20.000000 -20.000000 0.000000
vt -30.000000 -20.000000 0.000000
vt -20.000000 -30.000000 0.000000
vt -30.000000 -30.000000 0.000000
vt -10.000000 -30.000000 0.000000
vt -10.000000 -20.000000 0.000000
vt -10.000000 -10.000000 0.000000
vt -10.000000 0.000000 0.000000
vt -10.000000 10.000000 0.000000
vt -10.000000 20.000000 0.000000
vt -10.000000 30.000000 0.000000
vt 0.000000 20.000000 0.000000
vt 0.000000 30.000000 0.000000
vt 10.000000 20.000000 0.000000
vt 10.000000 30.000000 0.000000
vt 20.000000 20.000000 0.000000
vt 20.000000 30.000000 0.000000
vt 30.000000 20.000000 0.000000
vt 30.000000 30.000000 0.000000
vt 0.000000 -30.000000 0.000000
vt 0.000000 -20.000000 0.000000
vt 0.000000 -10.000000 0.000000
vt 0.000000 0.000000 0.000000
vt 0.000000 10.000000 0.000000
vt 10.000000 -30.000000 0.000000
vt 10.000000 -20.000000 0.000000
vt 10.000000 -10.000000 0.000000
vt 10.000000 0.000000 0.000000
vt 10.000000 10.000000 0.000000
vt 20.000000 -30.000000 0.000000
vt 20.000000 -20.000000 0.000000
vt 20.000000 -10.000000 0.000000
vt 20.000000 0.000000 0.000000
vt 20.000000 10.000000 0.000000
vt 30.000000 -30.000000 0.000000
vt 30.000000 -20.000000 0.000000
vt 30.000000 -10.000000 0.000000
vt 30.000000 0.000000 0.000000
vt 30.000000 10.000000 0.000000
vt 20.000000 -30.000000 0.000000
vt 30.000000 -30.000000 0.000000
vt 20.000000 -20.000000 0.000000
vt 30.000000 -20.000000 0.000000
vt 20.000000 -10.000000 0.000000
vt 30.000000 -10.000000 0.000000
vt 20.000000 0.000000 0.000000
vt 30.000000 0.000000 0.000000
vt 20.000000 10.000000 0.000000
vt 30.000000 10.000000 0.000000
vt 20.000000 20.000000 0.000000
vt 30.000000 20.000000 0.000000
vt 20.000000 30.000000 0.000000
vt 30.000000 30.000000 0.000000
vt 10.000000 30.000000 0.000000
vt 10.000000 20.000000 0.000000
vt 10.000000 10.000000 0.000000
vt 10.000000 0.000000 0.000000
vt 10.000000 -10.000000 0.000000
vt 10.000000 -20.000000 0.000000
vt 10.000000 -30.000000 0.000000
vt 0.000000 -20.000000 0.000000
vt -0.000000 -30.000000 0.000000
vt -10.000000 -20.000000 0.000000
vt -10.000000 -30.000000 0.000000
vt -20.000000 -20.000000 0.000000
vt -20.000000 -30.000000 0.000000
vt -30.000000 -20.000000 0.000000
vt -30.000000 -30.000000 0.000000
vt -0.000000 30.000000 0.000000
vt 0.000000 20.000000 0.000000
vt 0.000000 10.000000 0.000000
vt 0.000000 0.000000 0.000000
vt 0.000000 -10.000000 0.000000
vt -10.000000 30.000000 0.000000
vt -10.000000 20.000000 0.000000
vt -10.000000 10.000000 0.000000
vt -10.000000 0.000000 0.000000
vt -10.000000 -10.000000 0.000000
vt -20.000000 30.000000 0.000000
vt -20.000000 20.000000 0.000000
vt -20.000000 10.000000 0.000000
vt -20.000000 0.000000 0.000000
vt -20.000000 -10.000000 0.000000
vt -30.000000 30.000000 0.000000
vt -30.000000 20.000000 0.000000
vt -30.000000 10.000000 0.000000
vt -30.000000 0.000000 0.000000
vt -30.000000 -10.000000 0.000000
vn 0.000000 1.000000 -0.000000
vn 0.000000 1.000000 -0.000000
vn 0.000000 1.000000 -0.000000
vn 0.000000 1.000000 -0.000000
vn 0.000000 1.000000 -0.000000
vn 0.000000 1.000000 -0.000000
vn 0.000000 1.000000 -0.000000
vn 0.000000 1.000000 -0.000000
vn 0.000000 1.000000 -0.000000
vn 0.000000 1.000000 -0.000000
vn 0.000000 1.000000 -0.000000
vn 0.000000 1.000000 -0.000000
vn 0.000000 1.000000 -0.000000
vn 0.000000 1.000000 -0.000000
vn 1.000000 0.000000 0.000000
vn 1.000000 0.000000 0.000000
vn 1.000000 0.000000 0.000000
vn 1.000000 0.000000 0.000000
vn 1.000000 0.000000 0.000000
vn 1.000000 0.000000 0.000000
vn 1.000000 0.000000 0.000000
vn 1.000000 0.000000 0.000000
vn 1.000000 0.000000 0.000000
vn 1.000000 0.000000 0.000000
vn 1.000000 0.000000 0.000000
vn 1.000000 0.000000 0.000000
vn 1.000000 0.000000 0.000000
vn 1.000000 0.000000 0.000000
vn 0.000000 -1.000000 0.000000
vn 0.000000 -1.000000 0.000000
vn 0.000000 -1.000000 0.000000
vn 0.000000 -1.000000 0.000000
vn 0.000000 -1.000000 0.000000
vn 0.000000 -1.000000 0.000000
vn 0.000000 -1.000000 0.000000
vn 0.000000 -1.000000 0.000000
vn 0.000000 -1.000000 0.000000
vn 0.000000 -1.000000 0.000000
vn 0.000000 -1.000000 0.000000
vn 0.000000 -1.000000 0.000000
vn 0.000000 -1.000000 0.000000
vn 0.000000 -1.000000 0.000000
vn -1.000000 0.000000 0.000000
vn -1.000000 0.000000 0.000000
vn -1.000000 0.000000 0.000000
vn -1.000000 0.000000 0.000000
vn -1.000000 0.000000 0.000000
vn -1.000000 0.000000 0.000000
vn -1.000000 0.000000 0.000000
vn -1.000000 0.000000 0.000000
vn -1.000000 0.000000 0.000000
vn -1.000000 0.000000 0.000000
vn -1.000000 0.000000 0.000000
vn -1.000000 0.000000 0.000000
vn -1.000000 0.000000 0.000000
vn -1.000000 0.000000 0.000000
vn 0.000000 0.000000 1.000000
vn 0.000000 0.000000 1.000000
vn 0.000000 0.000000 1.000000
vn 0.000000 0.000000 1.000000
vn 0.000000 0.000000 1.000000
vn 0.000000 0.000000 1.000000
vn 0.000000 0.000000 1.000000
vn 0.000000 0.000000 1.000000
vn 0.000000 0.000000 1.000000
vn 0.000000 0.000000 1.000000
vn 0.000000 0.000000 1.000000
vn 0.000000 0.000000 1.000000
vn 0.000000 0.000000 1.000000
vn 0.000000 0.000000 1.000000
vn 0.000000 0.000000 1.000000
vn 0.000000 0.000000 1.000000
vn 0.000000 0.000000 1.000000
vn 0.000000 0.000000 1.000000
vn 0.000000 0.000000 1.000000
vn 0.000000 0.000000 1.000000
vn 0.000000 0.000000 1.000000
vn 0.000000 0.000000 1.000000
vn 0.000000 0.000000 1.000000
vn 0.000000 0.000000 1.000000
vn 0.000000 0.000000 1.000000
vn 0.000000 0.000000 1.000000
vn 0.000000 0.000000 1.000000
vn 0.000000 0.000000 1.000000
vn 0.000000 0.000000 1.000000
vn 0.000000 0.000000 1.000000
vn 0.000000 0.000000 1.000000
vn 0.000000 0.000000 1.000000
vn 0.000000 0.000000 1.000000
vn 0.000000 0.000000 1.000000
vn 0.000000 0.000000 1.000000
vn 0.000000 0.000000 1.000000
vn 0.000000 0.000000 1.000000
vn 0.000000 0.000000 1.000000
vn 0.000000 0.000000 1.000000
vn 0.000000 0.000000 1.000000
vn 0.000000 0.000000 1.000000
vn 0.000000 0.000000 1.000000
vn 0.000000 0.000000 1.000000
vn 0.000000 0.000000 1.000000
vn 0.000000 0.000000 1.000000
vn 0.000000 0.000000 1.000000
vn 0.000000 0.000000 1.000000
vn 0.000000 0.000000 1.000000
vn 0.000000 0.000000 1.000000
vn -0.000000 -0.000000 -1.000000
vn -0.000000 -0.000000 -1.000000
vn -0.000000 -0.000000 -1.000000
vn -0.000000 -0.000000 -1.000000
vn -0.000000 -0.000000 -1.000000
vn -0.000000 -0.000000 -1.000000
vn -0.000000 -0.000000 -1.000000
vn -0.000000 -0.000000 -1.000000
vn -0.000000 -0.000000 -1.000000
vn -0.000000 -0.000000 -1.000000
vn -0.000000 -0.000000 -1.000000
vn -0.000000 -0.000000 -1.000000
vn -0.000000 -0.000000 -1.000000
vn -0.000000 -0.000000 -1.000000
vn -0.000000 -0.000000 -1.000000
vn -0.000000 -0.000000 -1.000000
vn -0.000000 -0.000000 -1.000000
vn -0.000000 -0.000000 -1.000000
vn -0.000000 -0.000000 -1.000000
vn -0.000000 -0.000000 -1.000000
vn -0.000000 -0.000000 -1.000000
vn -0.000000 -0.000000 -1.000000
vn -0.000000 -0.000000 -1.000000
vn -0.000000 -0.000000 -1.000000
vn -0.000000 -0.000000 -1.000000
vn -0.000000 -0.000000 -1.000000
vn -0.000000 -0.000000 -1.000000
vn -0.000000 -0.000000 -1.000000
vn -0.000000 -0.000000 -1.000000
vn -0.000000 -0.000000 -1.000000
vn -0.000000 -0.000000 -1.000000
vn -0.000000 -0.000000 -1.000000
vn -0.000000 -0.000000 -1.000000
vn -0.000000 -0.000000 -1.000000
vn -0.000000 -0.000000 -1.000000
vn -0.000000 -0.000000 -1.000000
vn -0.000000 -0.000000 -1.000000
vn -0.000000 -0.000000 -1.000000
vn -0.000000 -0.000000 -1.000000
vn -0.000000 -0.000000 -1.000000
vn -0.000000 -0.000000 -1.000000
vn -0.000000 -0.000000 -1.000000
vn -0.000000 -0.000000 -1.000000
vn -0.000000 -0.000000 -1.000000
vn -0.000000 -0.000000 -1.000000
vn -0.000000 -0.000000 -1.000000
vn -0.000000 -0.000000 -1.000000
vn -0.000000 -0.000000 -1.000000
vn -0.000000 -0.000000 -1.000000
usemtl Steel_-_Satin
f 1/1/1 2/2/2 14/3/3
f 14/3/3 2/2/2 13/4/4
f 13/4/4 2/2/2 3/5/5
f 13/4/4 3/5/5 12/6/6
f 12/6/6 3/5/5 4/7/7
f 12/6/6 4/7/7 11/8/8
f 11/8/8 4/7/7 5/9/9
f 11/8/8 5/9/9 10/10/10
f 10/10/10 5/9/9 6/11/11
f 10/10/10 6/11/11 9/12/12
f 9/12/12 6/11/11 7/13/13
f 9/12/12 7/13/13 8/14/14
f 15/15/15 16/16/16 26/17/17
f 26/17/17 16/16/16 25/18/18
f 25/18/18 16/16/16 17/19/19
f 25/18/18 17/19/19 24/20/20
f 24/20/20 17/19/19 18/21/21
f 24/20/20 18/21/21 23/22/22
f 23/22/22 18/21/21 19/23/23
f 23/22/22 19/23/23 22/24/24
f 22/24/24 19/23/23 20/25/25
f 22/24/24 20/25/25 21/26/26
f 21/26/26 20/25/25 1/27/27
f 21/26/26 1/27/27 14/28/28
f 27/29/29 28/30/30 38/31/31
f 38/31/31 28/30/30 37/32/32
f 37/32/32 28/30/30 29/33/33
f 37/32/32 29/33/33 36/34/34
f 36/34/34 29/33/33 30/35/35
f 36/34/34 30/35/35 35/36/36
f 35/36/36 30/35/35 31/37/37
f 35/36/36 31/37/37 34/38/38
f 34/38/38 31/37/37 32/39/39
f 34/38/38 32/39/39 33/40/40
f 33/40/40 32/39/39 15/41/41
f 33/40/40 15/41/41 26/42/42
f 7/43/43 39/44/44 8/45/45
f 8/45/45 39/44/44 48/46/46
f 48/46/46 39/44/44 40/47/47
f 48/46/46 40/47/47 47/48/48
f 47/48/48 40/47/47 41/49/49
f 47/48/48 41/49/49 46/50/50
f 46/50/50 41/49/49 42/51/51
f 46/50/50 42/51/51 45/52/52
f 45/52/52 42/51/51 43/53/53
f 45/52/52 43/53/53 44/54/54
f 44/54/54 43/53/53 27/55/55
f 44/54/54 27/55/55 38/56/56
f 9/57/57 8/58/58 49/59/59
f 49/59/59 8/58/58 48/60/60
f 49/59/59 48/60/60 54/61/61
f 54/61/61 48/60/60 47/62/62
f 54/61/61 47/62/62 59/63/63
f 59/63/63 47/62/62 46/64/64
f 59/63/63 46/64/64 64/65/65
f 64/65/65 46/64/64 45/66/66
f 64/65/65 45/66/66 69/67/67
f 69/67/67 45/66/66 44/68/68
f 69/67/67 44/68/68 37/69/69
f 37/69/69 44/68/68 38/70/70
f 37/69/69 36/71/71 69/67/67
f 69/67/67 36/71/71 70/72/72
f 69/67/67 70/72/72 64/65/65
f 64/65/65 70/72/72 65/73/73
f 64/65/65 65/73/73 59/63/63
f 59/63/63 65/73/73 60/74/74
f 59/63/63 60/74/74 54/61/61
f 54/61/61 60/74/74 55/75/75
f 54/61/61 55/75/75 49/59/59
f 49/59/59 55/75/75 50/76/76
f 49/59/59 50/76/76 9/57/57
f 9/57/57 50/76/76 10/77/77
f 10/77/77 50/76/76 51/78/78
f 10/77/77 51/78/78 11/79/79
f 11/79/79 51/78/78 52/80/80
f 11/79/79 52/80/80 12/81/81
f 12/81/81 52/80/80 53/82/82
f 12/81/81 53/82/82 13/83/83
f 13/83/83 53/82/82 21/84/84
f 13/83/83 21/84/84 14/85/85
f 36/71/71 35/86/86 70/72/72
f 70/72/72 35/86/86 71/87/87
f 70/72/72 71/87/87 65/73/73
f 65/73/73 71/87/87 66/88/88
f 65/73/73 66/88/88 60/74/74
f 60/74/74 66/88/88 61/89/89
f 60/74/74 61/89/89 55/75/75
f 55/75/75 61/89/89 56/90/90
f 55/75/75 56/90/90 50/76/76
f 50/76/76 56/90/90 51/78/78
f 35/86/86 34/91/91 71/87/87
f 71/87/87 34/91/91 72/92/92
f 71/87/87 72/92/92 66/88/88
f 66/88/88 72/92/92 67/93/93
f 66/88/88 67/93/93 61/89/89
f 61/89/89 67/93/93 62/94/94
f 61/89/89 62/94/94 56/90/90
f 56/90/90 62/94/94 57/95/95
f 56/90/90 57/95/95 51/78/78
f 51/78/78 57/95/95 52/80/80
f 34/91/91 33/96/96 72/92/92
f 72/92/92 33/96/96 73/97/97
f 72/92/92 73/97/97 67/93/93
f 67/93/93 73/97/97 68/98/98
f 67/93/93 68/98/98 62/94/94
f 62/94/94 68/98/98 63/99/99
f 62/94/94 63/99/99 57/95/95
f 57/95/95 63/99/99 58/100/100
f 57/95/95 58/100/100 52/80/80
f 52/80/80 58/100/100 53/82/82
f 33/96/96 26/101/101 73/97/97
f 73/97/97 26/101/101 25/102/102
f 73/97/97 25/102/102 68/98/98
f 68/98/98 25/102/102 24/103/103
f 68/98/98 24/103/103 63/99/99
f 63/99/99 24/103/103 23/104/104
f 63/99/99 23/104/104 58/100/100
f 58/100/100 23/104/104 22/105/105
f 58/100/100 22/105/105 53/82/82
f 53/82/82 22/105/105 21/84/84
f 28/106/106 27/107/107 74/108/108
f 74/108/108 27/107/107 43/109/109
f 74/108/108 43/109/109 79/110/110
f 79/110/110 43/109/109 42/111/111
f 79/110/110 42/111/111 84/112/112
f 84/112/112 42/111/111 41/113/113
f 84/112/112 41/113/113 89/114/114
f 89/114/114 41/113/113 40/115/115
f 89/114/114 40/115/115 94/116/116
f 94/116/116 40/115/115 39/117/117
f 94/116/116 39/117/117 6/118/118
f 6/118/118 39/117/117 7/119/119
f 6/118/118 5/120/120 94/116/116
f 94/116/116 5/120/120 95/121/121
f 94/116/116 95/121/121 89/114/114
f 89/114/114 95/121/121 90/122/122
f 89/114/114 90/122/122 84/112/112
f 84/112/112 90/122/122 85/123/123
f 84/112/112 85/123/123 79/110/110
f 79/110/110 85/123/123 80/124/124
f 79/110/110 80/124/124 74/108/108
f 74/108/108 80/124/124 75/125/125
f 74/108/108 75/125/125 28/106/106
f 28/106/106 75/125/125 29/126/126
f 29/126/126 75/125/125 76/127/127
f 29/126/126 76/127/127 30/128/128
f 30/128/128 76/127/127 77/129/129
f 30/128/128 77/129/129 31/130/130
f 31/130/130 77/129/129 78/131/131
f 31/130/130 78/131/131 32/132/132
f 32/132/132 78/131/131 16/133/133
f 32/132/132 16/133/133 15/134/134
f 5/120/120 4/135/135 95/121/121
f 95/121/121 4/135/135 96/136/136
f 95/121/121 96/136/136 90/122/122
f 90/122/122 96/136/136 91/137/137
f 90/122/122 91/137/137 85/123/123
f 85/123/123 91/137/137 86/138/138
f 85/123/123 86/138/138 80/124/124
f 80/124/124 86/138/138 81/139/139
f 80/124/124 81/139/139 75/125/125
f 75/125/125 81/139/139 76/127/127
f 4/135/135 3/140/140 96/136/136
f 96/136/136 3/140/140 97/141/141
f 96/136/136 97/141/141 91/137/137
f 91/137/137 97/141/141 92/142/142
f 91/137/137 92/142/142 86/138/138
f 86/138/138 92/142/142 87/143/143
f 86/138/138 87/143/143 81/139/139
f 81/139/139 87/143/143 82/144/144
f 81/139/139 82/144/144 76/127/127
f 76/127/127 82/144/144 77/129/129
f 3/140/140 2/145/145 97/141/141
f 97/141/141 2/145/145 98/146/146
f 97/141/141 98/146/146 92/142/142
f 92/142/142 98/146/146 93/147/147
f 92/142/142 93/147/147 87/143/143
f 87/143/143 93/147/147 88/148/148
f 87/143/143 88/148/148 82/144/144
f 82/144/144 88/148/148 83/149/149
f 82/144/144 83/149/149 77/129/129
f 77/129/129 83/149/149 78/131/131
f 2/145/145 1/150/150 98/146/146
f 98/146/146 1/150/150 20/151/151
f 98/146/146 20/151/151 93/147/147
f 93/147/147 20/151/151 19/152/152
f 93/147/147 19/152/152 88/148/148
f 88/148/148 19/152/152 18/153/153
f 88/148/148 18/153/153 83/149/149
f 83/149/149 18/153/153 17/154/154
f 83/149/149 17/154/154 78/131/131
f 78/131/131 17/154/154 16/133/133
# 98 vertices
# 154 texture params
# 154 normals
# 192 facets

# 1 groups
