<?xml version="1.0" encoding="utf-8"?>
<COLLADA xmlns="http://www.collada.org/2005/11/COLLADASchema" version="1.4.1">
  <asset>
    <created>2026-04-04</created>
    <unit name="metre" meter="1"/>
    <up_axis>Z_UP</up_axis>
  </asset>

  <!-- ==================== Images ==================== -->
  <library_images>
    <image id="box3_img" name="box3_img">
      <init_from>box3.png</init_from>
    </image>
  </library_images>

  <!-- ==================== Materials ==================== -->
  <library_effects>
    <!-- Textured effect for top face -->
    <effect id="top_effect">
      <profile_COMMON>
        <newparam sid="mantech_surface">
          <surface type="2D">
            <init_from>box3_img</init_from>
          </surface>
        </newparam>
        <newparam sid="mantech_sampler">
          <sampler2D>
            <source>mantech_surface</source>
            <wrap_s>CLAMP</wrap_s>
            <wrap_t>CLAMP</wrap_t>
          </sampler2D>
        </newparam>
        <technique sid="common">
          <phong>
            <emission><color>0 0 0 1</color></emission>
            <ambient><color>0.3 0.3 0.3 1</color></ambient>
            <diffuse>
              <texture texture="mantech_sampler" texcoord="TEX0"/>
            </diffuse>
            <specular><color>0.1 0.1 0.1 1</color></specular>
            <shininess><float>10</float></shininess>
          </phong>
        </technique>
      </profile_COMMON>
    </effect>
    <!-- Plain grey effect for sides/bottom -->
    <effect id="grey_effect">
      <profile_COMMON>
        <technique sid="common">
          <phong>
            <emission><color>0 0 0 1</color></emission>
            <ambient><color>0.3 0.3 0.3 1</color></ambient>
            <diffuse><color>0.6 0.6 0.6 1</color></diffuse>
            <specular><color>0.2 0.2 0.2 1</color></specular>
            <shininess><float>20</float></shininess>
          </phong>
        </technique>
      </profile_COMMON>
    </effect>
  </library_effects>

  <library_materials>
    <material id="top_mat" name="top_mat">
      <instance_effect url="#top_effect"/>
    </material>
    <material id="grey_mat" name="grey_mat">
      <instance_effect url="#grey_effect"/>
    </material>
  </library_materials>

  <!-- ==================== Geometry ==================== -->
  <library_geometries>

    <!-- Top face -->
    <geometry id="top_geom" name="top_geom">
      <mesh>
        <source id="top_pos">
          <float_array id="top_pos_arr" count="12">-0.300000 -0.300000 0.100000 0.300000 -0.300000 0.100000 0.300000 0.300000 0.100000 -0.300000 0.300000 0.100000</float_array>
          <technique_common>
            <accessor source="#top_pos_arr" count="4" stride="3">
              <param name="X" type="float"/><param name="Y" type="float"/><param name="Z" type="float"/>
            </accessor>
          </technique_common>
        </source>
        <source id="top_norm">
          <float_array id="top_norm_arr" count="12">0.000000 0.000000 1.000000 0.000000 0.000000 1.000000 0.000000 0.000000 1.000000 0.000000 0.000000 1.000000</float_array>
          <technique_common>
            <accessor source="#top_norm_arr" count="4" stride="3">
              <param name="X" type="float"/><param name="Y" type="float"/><param name="Z" type="float"/>
            </accessor>
          </technique_common>
        </source>
        <source id="top_uv">
          <float_array id="top_uv_arr" count="8">0.000000 0.000000 1.000000 0.000000 1.000000 1.000000 0.000000 1.000000</float_array>
          <technique_common>
            <accessor source="#top_uv_arr" count="4" stride="2">
              <param name="S" type="float"/><param name="T" type="float"/>
            </accessor>
          </technique_common>
        </source>
        <vertices id="top_verts">
          <input semantic="POSITION" source="#top_pos"/>
        </vertices>
        <triangles material="top_mat_ref" count="2">
          <input semantic="VERTEX"   source="#top_verts" offset="0"/>
          <input semantic="NORMAL"   source="#top_norm"  offset="1"/>
          <input semantic="TEXCOORD" source="#top_uv"    offset="2" set="0"/>
          <p>0 0 0 1 1 1 2 2 2 0 0 0 2 2 2 3 3 3</p>
        </triangles>
      </mesh>
    </geometry>

    <!-- Side + bottom faces -->
    <geometry id="side_geom" name="side_geom">
      <mesh>
        <source id="side_pos">
          <float_array id="side_pos_arr" count="60">-0.300000 0.300000 0.000000 0.300000 0.300000 0.000000 0.300000 -0.300000 0.000000 -0.300000 -0.300000 0.000000 -0.300000 -0.300000 0.000000 0.300000 -0.300000 0.000000 0.300000 -0.300000 0.100000 -0.300000 -0.300000 0.100000 0.300000 0.300000 0.000000 -0.300000 0.300000 0.000000 -0.300000 0.300000 0.100000 0.300000 0.300000 0.100000 -0.300000 0.300000 0.000000 -0.300000 -0.300000 0.000000 -0.300000 -0.300000 0.100000 -0.300000 0.300000 0.100000 0.300000 -0.300000 0.000000 0.300000 0.300000 0.000000 0.300000 0.300000 0.100000 0.300000 -0.300000 0.100000</float_array>
          <technique_common>
            <accessor source="#side_pos_arr" count="20" stride="3">
              <param name="X" type="float"/><param name="Y" type="float"/><param name="Z" type="float"/>
            </accessor>
          </technique_common>
        </source>
        <source id="side_norm">
          <float_array id="side_norm_arr" count="60">0.000000 0.000000 -1.000000 0.000000 0.000000 -1.000000 0.000000 0.000000 -1.000000 0.000000 0.000000 -1.000000 0.000000 -1.000000 0.000000 0.000000 -1.000000 0.000000 0.000000 -1.000000 0.000000 0.000000 -1.000000 0.000000 0.000000 1.000000 0.000000 0.000000 1.000000 0.000000 0.000000 1.000000 0.000000 0.000000 1.000000 0.000000 -1.000000 0.000000 0.000000 -1.000000 0.000000 0.000000 -1.000000 0.000000 0.000000 -1.000000 0.000000 0.000000 1.000000 0.000000 0.000000 1.000000 0.000000 0.000000 1.000000 0.000000 0.000000 1.000000 0.000000 0.000000</float_array>
          <technique_common>
            <accessor source="#side_norm_arr" count="20" stride="3">
              <param name="X" type="float"/><param name="Y" type="float"/><param name="Z" type="float"/>
            </accessor>
          </technique_common>
        </source>
        <vertices id="side_verts">
          <input semantic="POSITION" source="#side_pos"/>
        </vertices>
        <triangles material="grey_mat_ref" count="10">
          <input semantic="VERTEX" source="#side_verts" offset="0"/>
          <input semantic="NORMAL" source="#side_norm"  offset="1"/>
          <p>0 0 1 1 2 2 0 0 2 2 3 3 4 4 5 5 6 6 4 4 6 6 7 7 8 8 9 9 10 10 8 8 10 10 11 11 12 12 13 13 14 14 12 12 14 14 15 15 16 16 17 17 18 18 16 16 18 18 19 19</p>
        </triangles>
      </mesh>
    </geometry>

  </library_geometries>

  <!-- ==================== Scene ==================== -->
  <library_visual_scenes>
    <visual_scene id="Scene" name="Scene">
      <node id="box_node" name="box_node" type="NODE">
        <!-- Top face visual -->
        <instance_geometry url="#top_geom">
          <bind_material>
            <technique_common>
              <instance_material symbol="top_mat_ref" target="#top_mat">
                <bind_vertex_input semantic="TEX0" input_semantic="TEXCOORD" input_set="0"/>
              </instance_material>
            </technique_common>
          </bind_material>
        </instance_geometry>
        <!-- Side/bottom visual -->
        <instance_geometry url="#side_geom">
          <bind_material>
            <technique_common>
              <instance_material symbol="grey_mat_ref" target="#grey_mat"/>
            </technique_common>
          </bind_material>
        </instance_geometry>
      </node>
    </visual_scene>
  </library_visual_scenes>

  <scene>
    <instance_visual_scene url="#Scene"/>
  </scene>
</COLLADA>
